<svg version="1.1" id="Layer_1" xmlns="http://www.w3.org/2000/svg" xmlns:xlink="http://www.w3.org/1999/xlink" x="0px" y="0px"
	 width="100%" viewBox="0 0 192 192" enable-background="new 0 0 192 192" xml:space="preserve">
<path fill="#FDFDFD" opacity="1.000000" stroke="none" 
	d="
M117.000000,193.000000 
	C78.025078,193.000000 39.550156,193.000000 1.037616,193.000000 
	C1.037616,129.066788 1.037616,65.133537 1.037616,1.100147 
	C64.891411,1.100147 128.783035,1.100147 192.837326,1.100147 
	C192.837326,64.999664 192.837326,128.999802 192.837326,193.000000 
	C167.800491,193.000000 142.650253,193.000000 117.000000,193.000000 
M37.690166,129.705490 
	C38.250610,129.399460 38.811050,129.093430 39.802502,129.344925 
	C41.882702,132.779205 45.378963,132.842361 48.105801,131.412262 
	C49.711281,130.570251 50.453087,127.461296 50.915092,125.233345 
	C51.378006,123.000992 51.165119,120.580284 50.926796,118.275391 
	C50.836483,117.401978 49.848045,116.621429 49.268978,115.798546 
	C48.694279,116.610985 47.712231,117.380356 47.620930,118.243904 
	C47.342152,120.880653 47.574341,123.575142 47.238922,126.200035 
	C47.132263,127.034706 45.870270,127.721733 45.136948,128.476318 
	C44.388916,127.732567 43.102654,127.059433 42.994045,126.231781 
	C42.671642,123.774849 42.699108,121.252281 42.803257,118.764305 
	C42.921730,115.934158 41.793293,115.096581 38.383965,116.072205 
	C37.844624,116.086739 37.305283,116.101273 36.045551,115.883553 
	C33.132671,115.883553 30.219790,115.883553 27.333511,115.883553 
	C27.333511,121.275017 27.333511,126.271896 27.333511,132.512177 
	C31.003397,131.572739 34.064972,130.789017 37.690166,129.705490 
M42.881802,38.142086 
	C27.218073,43.852943 18.588297,57.156994 20.025890,73.377785 
	C21.255680,87.253899 32.321518,99.963196 46.181278,101.790352 
	C55.022301,102.955879 64.111374,102.592979 73.075417,102.367050 
	C81.093536,102.164948 86.754311,96.896706 92.823654,91.202423 
	C99.645210,102.043465 110.085335,102.824524 121.111626,101.917847 
	C121.277184,101.904236 121.446373,101.899666 121.611145,101.916916 
	C125.036873,102.275764 126.338120,100.825294 126.272552,97.317528 
	C126.098198,87.989433 126.201736,78.655861 126.234467,69.324608 
	C126.237907,68.343796 126.505676,67.363907 126.818848,65.248566 
	C132.860992,75.021370 138.819550,83.500389 143.523727,92.626030 
	C147.445969,100.234810 152.684769,103.051292 161.000443,102.073029 
	C164.832199,101.622253 166.146072,100.590904 166.104416,96.698814 
	C165.929703,80.370781 166.084976,64.039558 166.011093,47.709995 
	C165.954636,35.237099 167.595749,37.080208 155.053955,36.957821 
	C148.255020,36.891476 148.250351,36.952045 148.247299,43.856419 
	C148.243240,53.063690 148.246292,62.270962 148.246292,72.944397 
	C146.839417,71.024567 146.335892,70.434113 145.937714,69.779572 
	C140.139008,60.247543 134.273743,50.754406 128.615509,41.139507 
	C126.913017,38.246521 124.823372,37.207256 121.454819,36.812916 
	C112.868660,35.807774 106.352829,38.982662 100.560936,44.988758 
	C96.241608,49.467827 91.428398,53.470619 86.623741,57.879501 
	C76.629997,42.763550 63.472473,33.178989 42.881802,38.142086 
M152.066513,127.184486 
	C153.130341,128.669266 154.194183,130.154037 155.258026,131.638809 
	C156.892471,129.804993 158.526901,127.971169 160.406311,125.862503 
	C160.614594,126.556664 160.640686,127.209221 160.966980,127.627663 
	C162.053268,129.020630 163.247299,130.329575 164.400055,131.670731 
	C165.358597,130.391739 166.765839,129.244751 167.188492,127.808098 
	C168.296677,124.041275 168.975433,120.148102 169.868225,116.111282 
	C164.135208,114.540611 167.191711,121.448219 164.332230,121.846184 
	C162.806915,119.636490 161.456467,117.680107 160.106018,115.723732 
	C158.629044,117.736885 157.152069,119.750038 155.459488,122.057076 
	C155.016953,120.717010 154.806351,119.410545 154.172379,118.359444 
	C153.609146,117.425644 152.576309,116.775101 151.750748,115.999535 
	C151.221390,117.170616 150.133316,118.416313 150.277695,119.497421 
	C150.589294,121.830597 151.533646,124.079262 152.066513,127.184486 
M14.085435,115.736732 
	C13.495054,115.958244 12.398486,116.160530 12.389235,116.404114 
	C12.213968,121.019325 12.117408,125.639999 12.172171,130.257553 
	C12.177503,130.707108 13.306410,131.518814 13.868948,131.481766 
	C14.442928,131.443970 15.337854,130.628815 15.434812,130.044830 
	C15.740761,128.202042 15.738561,126.308113 15.866714,124.255959 
	C19.395466,126.013962 18.675806,131.900528 24.247351,131.387329 
	C24.247351,126.807228 24.333160,122.518913 24.174135,118.239700 
	C24.142754,117.395264 23.168474,116.585861 22.629040,115.760307 
	C22.044001,116.539619 21.121208,117.251900 20.950258,118.113380 
	C20.668785,119.531830 20.873915,121.046837 20.873915,122.521149 
	C20.503092,122.523117 20.132267,122.525085 19.761444,122.527061 
	C18.110270,120.306488 16.459095,118.085915 14.085435,115.736732 
M64.049103,124.232628 
	C64.056122,121.922371 64.881157,118.113434 63.915020,117.586098 
	C61.143951,116.073578 57.647331,115.890335 53.730255,115.029480 
	C53.730255,119.345253 53.537933,122.466209 53.797955,125.549019 
	C53.970947,127.599983 54.789806,129.596466 55.319588,131.617340 
	C56.339088,130.069077 57.358589,128.520813 58.310032,127.075905 
	C60.153313,128.651672 62.181744,130.385712 64.210175,132.119766 
	C64.430305,131.769699 64.650436,131.419647 64.870567,131.069580 
	C64.426849,128.988251 63.983139,126.906906 64.049103,124.232628 
M131.991486,125.524734 
	C132.351852,122.960388 133.887665,119.656631 132.834076,117.981728 
	C130.455063,114.199844 126.251610,115.594856 122.357231,116.130951 
	C122.357231,118.016106 122.355812,119.507645 122.357544,120.999176 
	C122.360443,123.497398 122.208496,126.010376 122.441574,128.487045 
	C122.544189,129.577393 123.431557,130.593857 123.962631,131.643875 
	C124.678253,130.610016 125.439354,129.603714 126.089638,128.530273 
	C126.397690,128.021744 126.493935,127.384911 126.621796,126.999962 
	C128.408569,126.597336 129.864166,126.269333 131.991486,125.524734 
M71.388321,115.759132 
	C66.990463,118.742088 65.577789,125.010857 68.364044,129.179459 
	C70.406914,132.235870 75.424568,133.138138 78.068718,130.674286 
	C81.613503,127.371193 80.526909,122.825729 79.813576,119.059067 
	C79.163559,115.626762 75.642380,114.689545 71.388321,115.759132 
M86.313896,117.113304 
	C84.821800,121.764275 83.329704,126.415237 81.837616,131.066208 
	C82.043068,131.546188 82.248528,132.026169 82.453979,132.506149 
	C86.540939,128.053467 90.676735,127.871948 95.072090,131.836243 
	C93.925713,126.435158 92.651184,121.843178 90.866158,117.459068 
	C90.551277,116.685699 88.103241,116.780876 86.313896,117.113304 
M148.863159,120.235100 
	C147.053665,116.066727 143.875046,114.301292 139.667053,116.065369 
	C135.028549,118.009918 135.426971,122.387016 135.904617,126.385513 
	C136.338730,130.019302 138.632874,131.962906 142.340576,131.991318 
	C146.029556,132.019577 148.324829,130.152985 148.890396,126.522575 
	C149.168152,124.739594 148.958389,122.880661 148.863159,120.235100 
M170.392624,90.924210 
	C170.329712,93.513138 169.610947,96.348770 170.456253,98.596085 
	C170.943176,99.890610 174.187531,101.156296 175.777817,100.763474 
	C177.622955,100.307693 179.895569,98.248207 180.358383,96.463623 
	C180.825851,94.660995 179.870117,91.172188 178.523590,90.521706 
	C176.449677,89.519859 173.510422,90.309387 170.392624,90.924210 
M119.396858,115.761269 
	C117.574974,117.242386 115.753098,118.723503 113.568970,120.499115 
	C111.899345,119.879112 112.876770,113.902855 108.500496,116.054390 
	C109.846161,120.820671 111.062187,125.347404 112.449600,129.820984 
	C112.675171,130.548325 113.579338,131.253998 114.332443,131.536972 
	C114.638245,131.651886 115.678062,130.703842 115.873535,130.079636 
	C117.319916,125.460693 118.637589,120.801453 119.396858,115.761269 
M97.987221,115.696640 
	C96.974976,116.213737 95.962723,116.730827 94.950478,117.247925 
	C96.158150,118.081696 97.365822,118.915459 98.882339,119.962448 
	C98.882339,122.800888 98.764961,125.933128 98.957634,129.046188 
	C99.011734,129.920334 99.977180,130.738083 100.524605,131.581696 
	C101.111900,130.780579 102.155380,130.007126 102.205917,129.173477 
	C102.403297,125.917511 102.286499,122.642502 102.286499,120.233162 
	C104.126961,118.860252 105.285782,117.995811 106.444595,117.131363 
	C105.064705,116.652756 103.713959,116.031990 102.295563,115.741089 
	C101.186462,115.513618 99.993439,115.695290 97.987221,115.696640 
M172.637527,124.376846 
	C172.641998,126.031723 172.437820,127.725586 172.736801,129.325424 
	C172.891891,130.155365 173.937210,130.818924 174.580353,131.557663 
	C175.073364,130.837433 175.911789,130.153442 175.991913,129.389877 
	C176.198044,127.425194 176.256882,125.402992 176.025818,123.444931 
	C175.723785,120.885269 175.086273,118.365189 174.593079,115.828079 
	C173.941101,118.373802 173.289124,120.919518 172.637527,124.376846 
z"/>
<path fill="#3D1754" opacity="1.000000" stroke="none" 
	d="
M43.286697,38.048164 
	C63.472473,33.178989 76.629997,42.763550 86.623741,57.879501 
	C91.428398,53.470619 96.241608,49.467827 100.560936,44.988758 
	C106.352829,38.982662 112.868660,35.807774 121.454819,36.812916 
	C124.823372,37.207256 126.913017,38.246521 128.615509,41.139507 
	C134.273743,50.754406 140.139008,60.247543 145.937714,69.779572 
	C146.335892,70.434113 146.839417,71.024567 148.246292,72.944397 
	C148.246292,62.270962 148.243240,53.063690 148.247299,43.856419 
	C148.250351,36.952045 148.255020,36.891476 155.053955,36.957821 
	C167.595749,37.080208 165.954636,35.237099 166.011093,47.709995 
	C166.084976,64.039558 165.929703,80.370781 166.104416,96.698814 
	C166.146072,100.590904 164.832199,101.622253 161.000443,102.073029 
	C152.684769,103.051292 147.445969,100.234810 143.523727,92.626030 
	C138.819550,83.500389 132.860992,75.021370 126.818848,65.248566 
	C126.505676,67.363907 126.237907,68.343796 126.234467,69.324608 
	C126.201736,78.655861 126.098198,87.989433 126.272552,97.317528 
	C126.338120,100.825294 125.036873,102.275764 121.611145,101.916916 
	C121.446373,101.899666 121.277184,101.904236 121.111626,101.917847 
	C110.085335,102.824524 99.645210,102.043465 92.823654,91.202423 
	C86.754311,96.896706 81.093536,102.164948 73.075417,102.367050 
	C64.111374,102.592979 55.022301,102.955879 46.181278,101.790352 
	C32.321518,99.963196 21.255680,87.253899 20.025890,73.377785 
	C18.588297,57.156994 27.218073,43.852943 43.286697,38.048164 
M112.033684,75.195030 
	C112.019043,73.138420 112.004395,71.081810 112.045212,68.125481 
	C112.002266,66.309227 111.959320,64.492966 112.028740,61.851650 
	C111.985428,59.907940 111.942116,57.964226 112.060143,55.157223 
	C112.015709,53.384174 111.971283,51.611126 112.060242,49.052345 
	C111.986237,47.500484 111.912231,45.948620 111.758087,42.716236 
	C105.462883,48.769966 100.190903,53.722038 95.050163,58.806797 
	C82.845619,70.878426 74.904266,87.116180 58.427216,95.588570 
	C61.335732,96.022408 63.621685,96.363380 66.667694,96.924721 
	C67.445007,96.962814 68.222328,97.000916 69.641853,97.465767 
	C75.179100,98.835197 79.818718,96.929512 83.778282,93.253510 
	C86.925270,90.331886 89.789124,87.105286 93.117622,84.546577 
	C94.066635,85.356651 95.015640,86.166733 96.263840,87.561508 
	C97.487000,88.355240 98.710152,89.148972 100.266167,90.563187 
	C101.658623,90.717422 103.642235,91.540207 104.347130,90.916893 
	C108.762978,87.012115 113.064369,82.871330 112.033684,75.195030 
M77.378601,70.724373 
	C77.562958,70.115906 78.101212,69.286545 77.879593,68.931480 
	C73.094101,61.264427 68.042732,53.749367 58.867413,50.774216 
	C49.805664,47.835892 40.161762,51.909199 35.954548,60.130978 
	C31.422039,68.988457 33.598927,79.315529 41.255310,85.277687 
	C48.898090,91.229240 58.283371,90.928337 65.690422,83.947487 
	C69.779617,80.093590 73.210335,75.541000 77.378601,70.724373 
z"/>
<path fill="#4E3162" opacity="1.000000" stroke="none" 
	d="
M152.142822,126.773499 
	C151.533646,124.079262 150.589294,121.830597 150.277695,119.497421 
	C150.133316,118.416313 151.221390,117.170616 151.750748,115.999535 
	C152.576309,116.775101 153.609146,117.425644 154.172379,118.359444 
	C154.806351,119.410545 155.016953,120.717010 155.459488,122.057076 
	C157.152069,119.750038 158.629044,117.736885 160.106018,115.723732 
	C161.456467,117.680107 162.806915,119.636490 164.332230,121.846184 
	C167.191711,121.448219 164.135208,114.540611 169.868225,116.111282 
	C168.975433,120.148102 168.296677,124.041275 167.188492,127.808098 
	C166.765839,129.244751 165.358597,130.391739 164.400055,131.670731 
	C163.247299,130.329575 162.053268,129.020630 160.966980,127.627663 
	C160.640686,127.209221 160.614594,126.556664 160.406311,125.862503 
	C158.526901,127.971169 156.892471,129.804993 155.258026,131.638809 
	C154.194183,130.154037 153.130341,128.669266 152.142822,126.773499 
z"/>
<path fill="#4D2F62" opacity="1.000000" stroke="none" 
	d="
M14.446677,115.801041 
	C16.459095,118.085915 18.110270,120.306488 19.761444,122.527061 
	C20.132267,122.525085 20.503092,122.523117 20.873915,122.521149 
	C20.873915,121.046837 20.668785,119.531830 20.950258,118.113380 
	C21.121208,117.251900 22.044001,116.539619 22.629038,115.760307 
	C23.168474,116.585861 24.142754,117.395264 24.174135,118.239700 
	C24.333160,122.518913 24.247351,126.807228 24.247351,131.387329 
	C18.675806,131.900528 19.395466,126.013962 15.866714,124.255959 
	C15.738561,126.308113 15.740761,128.202042 15.434812,130.044830 
	C15.337854,130.628815 14.442928,131.443970 13.868948,131.481766 
	C13.306410,131.518814 12.177503,130.707108 12.172171,130.257553 
	C12.117408,125.639999 12.213968,121.019325 12.389235,116.404114 
	C12.398486,116.160530 13.495054,115.958244 14.446677,115.801041 
z"/>
<path fill="#523666" opacity="1.000000" stroke="none" 
	d="
M63.794262,124.529099 
	C63.983139,126.906906 64.426849,128.988251 64.870567,131.069580 
	C64.650436,131.419647 64.430305,131.769699 64.210175,132.119766 
	C62.181744,130.385712 60.153313,128.651672 58.310032,127.075905 
	C57.358589,128.520813 56.339088,130.069077 55.319588,131.617340 
	C54.789806,129.596466 53.970947,127.599983 53.797955,125.549019 
	C53.537933,122.466209 53.730255,119.345253 53.730255,115.029480 
	C57.647331,115.890335 61.143951,116.073578 63.915020,117.586098 
	C64.881157,118.113434 64.056122,121.922371 63.794262,124.529099 
z"/>
<path fill="#583C6C" opacity="1.000000" stroke="none" 
	d="
M131.655640,125.733032 
	C129.864166,126.269333 128.408569,126.597336 126.621796,126.999962 
	C126.493935,127.384911 126.397690,128.021744 126.089638,128.530273 
	C125.439354,129.603714 124.678253,130.610016 123.962631,131.643875 
	C123.431557,130.593857 122.544189,129.577393 122.441574,128.487045 
	C122.208496,126.010376 122.360443,123.497398 122.357544,120.999176 
	C122.355812,119.507645 122.357231,118.016106 122.357231,116.130951 
	C126.251610,115.594856 130.455063,114.199844 132.834076,117.981728 
	C133.887665,119.656631 132.351852,122.960388 131.655640,125.733032 
z"/>
<path fill="#4E3063" opacity="1.000000" stroke="none" 
	d="
M71.755089,115.634811 
	C75.642380,114.689545 79.163559,115.626762 79.813576,119.059067 
	C80.526909,122.825729 81.613503,127.371193 78.068718,130.674286 
	C75.424568,133.138138 70.406914,132.235870 68.364044,129.179459 
	C65.577789,125.010857 66.990463,118.742088 71.755089,115.634811 
M70.842735,125.222763 
	C72.089386,126.395805 73.336037,127.568848 74.582672,128.741898 
	C75.433617,126.803452 76.894157,124.878532 76.937584,122.922165 
	C76.970749,121.427513 75.210167,119.893059 74.247490,118.376305 
	C73.230598,119.076187 71.834602,119.565926 71.298813,120.532501 
	C70.712105,121.590950 70.919785,123.089752 70.842735,125.222763 
z"/>
<path fill="#523466" opacity="1.000000" stroke="none" 
	d="
M86.477097,116.794128 
	C88.103241,116.780876 90.551277,116.685699 90.866158,117.459068 
	C92.651184,121.843178 93.925713,126.435158 95.072090,131.836243 
	C90.676735,127.871948 86.540939,128.053467 82.453979,132.506149 
	C82.248528,132.026169 82.043068,131.546188 81.837616,131.066208 
	C83.329704,126.415237 84.821800,121.764275 86.477097,116.794128 
z"/>
<path fill="#48295D" opacity="1.000000" stroke="none" 
	d="
M148.916199,120.645599 
	C148.958389,122.880661 149.168152,124.739594 148.890396,126.522575 
	C148.324829,130.152985 146.029556,132.019577 142.340576,131.991318 
	C138.632874,131.962906 136.338730,130.019302 135.904617,126.385513 
	C135.426971,122.387016 135.028549,118.009918 139.667053,116.065369 
	C143.875046,114.301292 147.053665,116.066727 148.916199,120.645599 
M145.168701,120.295815 
	C142.557755,117.311310 140.324539,118.081406 139.518616,121.496460 
	C139.040497,123.522430 139.869400,125.952164 140.519821,128.074982 
	C140.663361,128.543472 143.336365,128.888504 143.483505,128.598877 
	C144.460114,126.676552 145.105347,124.578346 145.759781,122.506218 
	C145.890381,122.092674 145.595795,121.544853 145.168701,120.295815 
z"/>
<path fill="#543768" opacity="1.000000" stroke="none" 
	d="
M39.193100,116.095757 
	C41.793293,115.096581 42.921730,115.934158 42.803257,118.764305 
	C42.699108,121.252281 42.671642,123.774849 42.994045,126.231781 
	C43.102654,127.059433 44.388916,127.732567 45.136948,128.476318 
	C45.870270,127.721733 47.132263,127.034706 47.238922,126.200035 
	C47.574341,123.575142 47.342152,120.880653 47.620930,118.243904 
	C47.712231,117.380356 48.694279,116.610985 49.268978,115.798546 
	C49.848045,116.621429 50.836483,117.401978 50.926796,118.275391 
	C51.165119,120.580284 51.378006,123.000992 50.915092,125.233345 
	C50.453087,127.461296 49.711281,130.570251 48.105801,131.412262 
	C45.378963,132.842361 41.882702,132.779205 39.571030,128.620682 
	C39.290741,123.962875 39.241920,120.029320 39.193100,116.095757 
z"/>
<path fill="#45235C" opacity="1.000000" stroke="none" 
	d="
M170.665436,90.631584 
	C173.510422,90.309387 176.449677,89.519859 178.523590,90.521706 
	C179.870117,91.172188 180.825851,94.660995 180.358383,96.463623 
	C179.895569,98.248207 177.622955,100.307693 175.777817,100.763474 
	C174.187531,101.156296 170.943176,99.890610 170.456253,98.596085 
	C169.610947,96.348770 170.329712,93.513138 170.665436,90.631584 
z"/>
<path fill="#4F3264" opacity="1.000000" stroke="none" 
	d="
M37.126549,130.005295 
	C34.064972,130.789017 31.003397,131.572739 27.333511,132.512177 
	C27.333511,126.271896 27.333511,121.275017 27.333511,115.883553 
	C30.219790,115.883553 33.132671,115.883553 36.378349,116.377747 
	C35.473900,117.550240 34.225899,118.209846 33.003036,118.913170 
	C32.133553,119.413239 31.297949,119.972214 30.447224,120.504890 
	C31.320358,121.017426 32.170959,121.574486 33.072575,122.030746 
	C34.103924,122.552666 35.180611,122.984993 36.237602,123.456245 
	C35.173599,124.745972 34.357132,124.812454 33.681374,125.155838 
	C32.567829,125.721657 31.545296,126.466576 30.484398,127.135994 
	C31.556040,127.633278 32.617733,128.153610 33.702072,128.621490 
	C34.832191,129.109116 35.984142,129.546143 37.126549,130.005295 
z"/>
<path fill="#553969" opacity="1.000000" stroke="none" 
	d="
M119.696289,115.958069 
	C118.637589,120.801453 117.319916,125.460693 115.873535,130.079636 
	C115.678062,130.703842 114.638245,131.651886 114.332443,131.536972 
	C113.579338,131.253998 112.675171,130.548325 112.449600,129.820984 
	C111.062187,125.347404 109.846161,120.820671 108.500496,116.054390 
	C112.876770,113.902855 111.899345,119.879112 113.568970,120.499115 
	C115.753098,118.723503 117.574974,117.242386 119.696289,115.958069 
z"/>
<path fill="#4B2D60" opacity="1.000000" stroke="none" 
	d="
M98.412460,115.695908 
	C99.993439,115.695290 101.186462,115.513618 102.295563,115.741089 
	C103.713959,116.031990 105.064705,116.652756 106.444595,117.131371 
	C105.285782,117.995811 104.126961,118.860252 102.286499,120.233162 
	C102.286499,122.642502 102.403297,125.917511 102.205917,129.173477 
	C102.155380,130.007126 101.111900,130.780579 100.524605,131.581696 
	C99.977180,130.738083 99.011734,129.920334 98.957634,129.046188 
	C98.764961,125.933128 98.882339,122.800888 98.882339,119.962448 
	C97.365822,118.915459 96.158150,118.081696 94.950478,117.247925 
	C95.962723,116.730827 96.974976,116.213737 98.412460,115.695908 
z"/>
<path fill="#E4E1E7" opacity="1.000000" stroke="none" 
	d="
M37.408360,129.855392 
	C35.984142,129.546143 34.832191,129.109116 33.702072,128.621490 
	C32.617733,128.153610 31.556040,127.633278 30.484398,127.135994 
	C31.545296,126.466576 32.567829,125.721657 33.681374,125.155838 
	C34.357132,124.812454 35.173599,124.745972 36.237602,123.456245 
	C35.180611,122.984993 34.103924,122.552666 33.072575,122.030746 
	C32.170959,121.574486 31.320358,121.017426 30.447224,120.504890 
	C31.297949,119.972214 32.133553,119.413239 33.003036,118.913170 
	C34.225899,118.209846 35.473900,117.550240 36.738544,116.493866 
	C37.305283,116.101273 37.844624,116.086739 38.788536,116.083984 
	C39.241920,120.029320 39.290741,123.962875 39.355526,128.341919 
	C38.811050,129.093430 38.250610,129.399460 37.408360,129.855392 
z"/>
<path fill="#48295E" opacity="1.000000" stroke="none" 
	d="
M172.637344,123.921043 
	C173.289124,120.919518 173.941101,118.373802 174.593079,115.828079 
	C175.086273,118.365189 175.723785,120.885269 176.025818,123.444931 
	C176.256882,125.402992 176.198044,127.425194 175.991913,129.389877 
	C175.911789,130.153442 175.073364,130.837433 174.580353,131.557663 
	C173.937210,130.818924 172.891891,130.155365 172.736801,129.325424 
	C172.437820,127.725586 172.641998,126.031723 172.637344,123.921043 
z"/>
<path fill="#FBFBFB" opacity="1.000000" stroke="none" 
	d="
M77.158249,71.013878 
	C73.210335,75.541000 69.779617,80.093590 65.690422,83.947487 
	C58.283371,90.928337 48.898090,91.229240 41.255310,85.277687 
	C33.598927,79.315529 31.422039,68.988457 35.954548,60.130978 
	C40.161762,51.909199 49.805664,47.835892 58.867413,50.774216 
	C68.042732,53.749367 73.094101,61.264427 77.879593,68.931480 
	C78.101212,69.286545 77.562958,70.115906 77.158249,71.013878 
z"/>
<path fill="#DD2519" opacity="1.000000" stroke="none" 
	d="
M65.907639,96.704353 
	C63.621685,96.363380 61.335732,96.022408 58.427216,95.588570 
	C74.904266,87.116180 82.845619,70.878426 95.050163,58.806797 
	C100.190903,53.722038 105.462883,48.769966 111.758087,42.716236 
	C111.912231,45.948620 111.986237,47.500484 111.663391,49.539413 
	C106.174423,55.012844 100.960022,59.881332 96.015785,65.010254 
	C85.902893,75.500870 75.935158,86.131432 65.907639,96.704353 
z"/>
<path fill="#F98A03" opacity="1.000000" stroke="none" 
	d="
M66.287666,96.814537 
	C75.935158,86.131432 85.902893,75.500870 96.015785,65.010254 
	C100.960022,59.881332 106.174423,55.012844 111.596695,49.932278 
	C111.971283,51.611126 112.015709,53.384174 111.693924,55.745529 
	C102.324554,66.235756 93.455772,76.264824 84.259285,85.983795 
	C79.921951,90.567543 76.295570,96.422112 68.999641,97.039017 
	C68.222328,97.000916 67.445007,96.962814 66.287666,96.814537 
z"/>
<path fill="#EEC105" opacity="1.000000" stroke="none" 
	d="
M69.320747,97.252396 
	C76.295570,96.422112 79.921951,90.567543 84.259285,85.983795 
	C93.455772,76.264824 102.324554,66.235756 111.613251,56.177177 
	C111.942116,57.964226 111.985428,59.907940 111.668427,62.431519 
	C105.131630,70.012291 98.955154,77.013184 92.778679,84.014084 
	C89.789124,87.105286 86.925270,90.331886 83.778282,93.253510 
	C79.818718,96.929512 75.179100,98.835197 69.320747,97.252396 
z"/>
<path fill="#0B6F48" opacity="1.000000" stroke="none" 
	d="
M92.948151,84.280334 
	C98.955154,77.013184 105.131630,70.012291 111.612244,62.844048 
	C111.959320,64.492966 112.002266,66.309227 111.717926,68.720551 
	C106.248642,75.202690 101.106644,81.089745 95.964653,86.976807 
	C95.015640,86.166733 94.066635,85.356651 92.948151,84.280334 
z"/>
<path fill="#054084" opacity="1.000000" stroke="none" 
	d="
M96.114243,87.269157 
	C101.106644,81.089745 106.248642,75.202690 111.690193,69.170410 
	C112.004395,71.081810 112.019043,73.138420 111.725815,75.779297 
	C107.589745,80.889946 103.761528,85.416328 99.933311,89.942711 
	C98.710152,89.148972 97.487000,88.355240 96.114243,87.269157 
z"/>
<path fill="#4E1B67" opacity="1.000000" stroke="none" 
	d="
M100.099739,90.252945 
	C103.761528,85.416328 107.589745,80.889946 111.716072,76.221222 
	C113.064369,82.871330 108.762978,87.012115 104.347130,90.916893 
	C103.642235,91.540207 101.658623,90.717422 100.099739,90.252945 
z"/>
<path fill="#EBE9ED" opacity="1.000000" stroke="none" 
	d="
M70.811996,124.809708 
	C70.919785,123.089752 70.712105,121.590950 71.298813,120.532501 
	C71.834602,119.565926 73.230598,119.076187 74.247490,118.376305 
	C75.210167,119.893059 76.970749,121.427513 76.937584,122.922165 
	C76.894157,124.878532 75.433617,126.803452 74.582672,128.741898 
	C73.336037,127.568848 72.089386,126.395805 70.811996,124.809708 
z"/>
<path fill="#E7E4E9" opacity="1.000000" stroke="none" 
	d="
M145.332977,120.677383 
	C145.595795,121.544853 145.890381,122.092674 145.759781,122.506218 
	C145.105347,124.578346 144.460114,126.676552 143.483505,128.598877 
	C143.336365,128.888504 140.663361,128.543472 140.519821,128.074982 
	C139.869400,125.952164 139.040497,123.522430 139.518616,121.496460 
	C140.324539,118.081406 142.557755,117.311310 145.332977,120.677383 
z"/>
</svg>